<svg width="65" height="52" viewBox="0 0 65 52" fill="none" xmlns="http://www.w3.org/2000/svg">
<g opacity="0.1" clip-path="url(#clip0_138_507)">
<path d="M52.5924 7.50657C52.5924 7.50657 46.1748 7.22223 46.6131 0C46.6131 0 53.1414 1.16195 52.5924 7.50657Z" fill="#EA6F03"/>
<path d="M52.5923 7.50657L46.613 0C47.0329 0.053794 49.9364 0.473387 51.605 3.11083C52.4187 4.42371 52.7664 5.97209 52.5923 7.50657Z" fill="#EF8322"/>
<path d="M12.2645 7.50657C12.2645 7.50657 18.682 7.22223 18.2437 0C18.2437 0 11.7155 1.16195 12.2645 7.50657Z" fill="#EA6F03"/>
<path d="M12.2645 7.50657L18.2438 0C17.824 0.053794 14.9189 0.473387 13.2519 3.11083C12.4382 4.42371 12.0904 5.97209 12.2645 7.50657Z" fill="#EF8322"/>
<path d="M10.113 11.1107C10.113 11.1107 14.4683 6.39067 9.06723 1.57227C9.06723 1.57227 5.25329 6.99316 10.113 11.1107Z" fill="#EA6F03"/>
<path d="M10.113 11.1107L9.0672 1.57227C8.8073 1.90579 7.04182 4.24967 7.71541 7.29595C8.06344 8.80047 8.90795 10.1442 10.113 11.1107Z" fill="#EF8322"/>
<path d="M9.44403 10.7095C9.44403 10.7095 12.7643 5.21175 18.9004 9.0511C18.9004 9.0511 14.7574 14.2245 9.44403 10.7095Z" fill="#EA6F03"/>
<path d="M9.44403 10.7094L18.9004 9.05103C18.6529 9.39377 16.8935 11.7423 13.7793 11.9451C12.2365 12.03 10.7099 11.5949 9.44403 10.7094Z" fill="#EF8322"/>
<path d="M7.35868 18.6418C7.35868 18.6418 10.0161 12.8013 3.37865 9.91028C3.37865 9.91028 1.45168 16.2534 7.35868 18.6418Z" fill="#EA6F03"/>
<path d="M7.35871 18.6418L3.37868 9.91028C3.23566 10.3084 2.29294 13.0857 3.88618 15.7677C4.68801 17.0882 5.91117 18.1005 7.35871 18.6418Z" fill="#EF8322"/>
<path d="M6.59589 18.4698C6.59589 18.4698 8.02919 12.2097 15.0542 13.9388C15.0588 13.9388 12.7428 20.1482 6.59589 18.4698Z" fill="#EA6F03"/>
<path d="M6.59589 18.4697L15.0542 13.9387C14.9266 14.3414 13.9915 17.1218 11.0957 18.2884C9.65845 18.8509 8.07381 18.9147 6.59589 18.4697Z" fill="#EF8322"/>
<path d="M7.8968 27.4057C7.8968 27.4057 7.174 21.0258 -0.00482178 21.9556C-0.000208141 21.9556 1.60534 28.3848 7.8968 27.4057Z" fill="#EA6F03"/>
<path d="M7.89689 27.4057L-0.00012207 21.9556C0.0813855 22.3705 0.699612 25.237 3.44626 26.7202C4.81133 27.4398 6.37839 27.6811 7.89689 27.4057Z" fill="#EF8322"/>
<path d="M7.31259 27.3412C7.31259 27.3412 5.32565 21.2348 12.2461 19.1091C12.2461 19.1091 13.4503 25.629 7.31259 27.3412Z" fill="#EA6F03"/>
<path d="M7.31262 27.3412L12.2461 19.1091C12.343 19.521 12.9689 22.386 11.085 24.8728C10.1404 26.0953 8.81162 26.9647 7.31262 27.3412Z" fill="#EF8322"/>
<path d="M10.8774 36.5322C10.8774 36.5322 8.87819 30.4274 2.03925 32.7836C2.03925 32.7836 4.90739 38.7578 10.8774 36.5322Z" fill="#EA6F03"/>
<path d="M10.8774 36.5324L2.03925 32.7837C2.2038 33.1725 3.38643 35.8576 6.37453 36.7583C7.85847 37.189 9.44412 37.1094 10.8774 36.5324Z" fill="#EF8322"/>
<path d="M10.2884 36.5876C10.2884 36.5876 7.11109 31.0084 13.4625 27.5317C13.4625 27.5317 15.9539 33.6735 10.2884 36.5876Z" fill="#EA6F03"/>
<path d="M10.2883 36.5876L13.4625 27.5317C13.6409 27.916 14.8312 30.5965 13.4856 33.4122C12.8062 34.799 11.6802 35.9173 10.2883 36.5876Z" fill="#EF8322"/>
<path d="M16.3552 42.3066C16.3552 42.3066 12.2399 37.3745 6.75581 42.0976C6.74812 42.0976 11.6278 46.584 16.3552 42.3066Z" fill="#EA6F03"/>
<path d="M16.3553 42.3067L6.75586 42.0977C7.05267 42.4051 9.14726 44.4538 12.2569 44.1833C13.7948 44.0342 15.238 43.3734 16.3553 42.3067Z" fill="#EF8322"/>
<path d="M15.8201 42.5756C15.8201 42.5756 10.8004 38.5672 15.411 32.9895C15.411 32.9895 20.0015 37.771 15.8201 42.5756Z" fill="#EA6F03"/>
<path d="M15.8201 42.5756L15.411 32.9895C15.7186 33.28 17.8178 35.3288 17.6133 38.4411C17.4968 39.9814 16.8652 41.4376 15.8201 42.5756Z" fill="#EF8322"/>
<path d="M54.8853 11.1107C54.8853 11.1107 50.53 6.39067 55.9325 1.57227C55.9325 1.57227 59.7465 6.99316 54.8853 11.1107Z" fill="#EA6F03"/>
<path d="M54.8853 11.1107L55.9326 1.57227C56.1925 1.90579 57.9565 4.24967 57.2829 7.29595C56.9348 8.80047 56.0903 10.1442 54.8853 11.1107Z" fill="#EF8322"/>
<path d="M55.5543 10.7095C55.5543 10.7095 52.234 5.21175 46.0978 9.0511C46.0978 9.0511 50.2424 14.2245 55.5543 10.7095Z" fill="#EA6F03"/>
<path d="M55.5543 10.7094L46.0978 9.05103C46.3454 9.39377 48.1048 11.7423 51.2205 11.9451C52.7628 12.0302 54.289 11.595 55.5543 10.7094Z" fill="#EF8322"/>
<path d="M57.6412 18.6418C57.6412 18.6418 54.9822 12.8013 61.6212 9.91028C61.6212 9.91028 63.5467 16.2534 57.6412 18.6418Z" fill="#EA6F03"/>
<path d="M57.6412 18.6418L61.6213 9.91028C61.7628 10.3084 62.707 13.0857 61.1122 15.7677C60.3105 17.0877 59.088 18.0999 57.6412 18.6418Z" fill="#EF8322"/>
<path d="M58.4024 18.4698C58.4024 18.4698 56.9691 12.2097 49.9441 13.9388C49.9395 13.9388 52.2555 20.1482 58.4024 18.4698Z" fill="#EA6F03"/>
<path d="M58.4024 18.4697L49.9441 13.9387C50.0717 14.3414 51.0083 17.1218 53.9026 18.2884C55.3399 18.8509 56.9245 18.9147 58.4024 18.4697Z" fill="#EF8322"/>
<path d="M57.0968 27.4057C57.0968 27.4057 57.8196 21.0258 64.9984 21.9556C64.9984 21.9556 63.3929 28.3848 57.0968 27.4057Z" fill="#EA6F03"/>
<path d="M57.0968 27.4057L64.9984 21.9556C64.9169 22.3705 64.2987 25.237 61.552 26.7202C60.1857 27.4409 58.6168 27.6823 57.0968 27.4057Z" fill="#EF8322"/>
<path d="M57.6857 27.3412C57.6857 27.3412 59.6727 21.2348 52.7522 19.1091C52.7522 19.1091 51.5496 25.629 57.6857 27.3412Z" fill="#EA6F03"/>
<path d="M57.6858 27.3412L52.7522 19.1091C52.6554 19.521 52.0294 22.386 53.9133 24.8728C54.858 26.0953 56.1868 26.9647 57.6858 27.3412Z" fill="#EF8322"/>
<path d="M54.121 36.5322C54.121 36.5322 56.1202 30.4274 62.9592 32.7836C62.953 32.7836 60.091 38.7578 54.121 36.5322Z" fill="#EA6F03"/>
<path d="M54.121 36.5324L62.953 32.7837C62.7885 33.1725 61.6058 35.8576 58.6177 36.7583C57.1357 37.1875 55.5525 37.1079 54.121 36.5324Z" fill="#EF8322"/>
<path d="M54.7115 36.5876C54.7115 36.5876 57.8872 31.0053 51.5358 27.5317C51.5358 27.5317 49.0444 33.6735 54.7115 36.5876Z" fill="#EA6F03"/>
<path d="M54.7115 36.5876L51.5358 27.5317C51.3574 27.916 50.1686 30.5965 51.5127 33.4122C52.1925 34.7992 53.3191 35.9176 54.7115 36.5876Z" fill="#EF8322"/>
<path d="M48.6508 42.3066C48.6508 42.3066 52.7661 37.3745 58.2502 42.0976C58.2502 42.0976 53.3705 46.584 48.6508 42.3066Z" fill="#EA6F03"/>
<path d="M48.6508 42.3067L58.2502 42.0977C57.9534 42.4051 55.8588 44.4538 52.7492 44.1833C51.2114 44.0339 49.7682 43.3731 48.6508 42.3067Z" fill="#EF8322"/>
<path d="M49.1782 42.5756C49.1782 42.5756 54.1979 38.5672 49.5873 32.9895C49.5873 32.9895 44.9967 37.771 49.1782 42.5756Z" fill="#EA6F03"/>
<path d="M49.1783 42.5756L49.5873 32.9895C49.2798 33.28 47.1806 35.3288 47.3866 38.4411C47.5035 39.981 48.1344 41.437 49.1783 42.5756Z" fill="#EF8322"/>
<path d="M32.4123 48.8862C18.1807 48.8862 6.60358 37.3144 6.60358 23.0912C6.60185 16.9156 8.81735 10.9444 12.8474 6.26293C12.88 6.22362 12.9201 6.19121 12.9653 6.16757C13.0106 6.14394 13.0602 6.12955 13.1111 6.12526C13.1619 6.12097 13.2132 6.12686 13.2618 6.14258C13.3104 6.15831 13.3554 6.18355 13.3941 6.21684C13.4328 6.25013 13.4645 6.2908 13.4873 6.33647C13.5101 6.38214 13.5236 6.43189 13.527 6.48283C13.5304 6.53377 13.5235 6.58487 13.5069 6.63314C13.4903 6.68141 13.4642 6.72589 13.4302 6.76398C9.5215 11.305 7.37212 17.0965 7.37252 23.0866C7.37252 36.8871 18.599 48.1131 32.4123 48.1131C46.2255 48.1131 57.4535 36.8932 57.4535 23.0866C57.4542 17.0962 55.3042 11.3044 51.3943 6.76398C51.3603 6.72589 51.3342 6.68141 51.3176 6.63314C51.301 6.58487 51.2942 6.53377 51.2975 6.48283C51.3009 6.43189 51.3144 6.38214 51.3372 6.33647C51.36 6.2908 51.3917 6.25013 51.4304 6.21684C51.4692 6.18355 51.5141 6.15831 51.5627 6.14258C51.6113 6.12686 51.6626 6.12097 51.7135 6.12526C51.7644 6.12955 51.8139 6.14394 51.8592 6.16757C51.9045 6.19121 51.9446 6.22362 51.9772 6.26293C56.0073 10.9426 58.2234 16.9123 58.2225 23.0866C58.2225 37.3098 46.6515 48.8862 32.4123 48.8862Z" fill="#EA6F03"/>
<rect x="17.6776" y="41.2234" width="29.9984" height="10.7074" fill="#EEF2FC"/>
</g>
<g clip-path="url(#clip1_138_507)">
<path d="M48.1094 11.713H15.8755C15.8755 11.713 15.4975 40.1763 31.5618 40.9366V40.9523C31.7077 40.9523 31.8505 40.9523 31.9932 40.9523C32.136 40.9523 32.2803 40.9523 32.4262 40.9523V40.9366C48.4874 40.1763 48.1094 11.713 48.1094 11.713Z" fill="#FFD13D"/>
<path d="M48.1093 11.713H39.4615C39.4254 15.198 38.7132 36.0282 27.041 39.8534C28.4617 40.5056 29.9965 40.8736 31.5587 40.9366V40.9523C31.7046 40.9523 31.8473 40.9523 31.9901 40.9523C32.1328 40.9523 32.2771 40.9523 32.423 40.9523V40.9366C48.4874 40.1763 48.1093 11.713 48.1093 11.713Z" fill="#FCAF00"/>
<path d="M41.3234 34.9982L40.6238 33.4211C40.7682 33.3568 55.0553 26.9386 53.7706 19.7005C53.5039 18.1877 52.9376 17.2721 52.089 16.979C49.94 16.2359 46.0388 19.122 44.8435 20.1928L43.6921 18.9072C44.2411 18.4165 49.1619 14.1414 52.6521 15.3501C54.1376 15.8627 55.0851 17.2314 55.4757 19.3995C56.98 27.9623 41.9619 34.7144 41.3234 34.9982Z" fill="#FCAF00"/>
<path d="M22.9971 34.9982C22.3571 34.7144 7.33902 27.9623 8.84962 19.3995C9.23393 17.2267 10.1814 15.8627 11.6732 15.3501C15.1649 14.1414 20.0842 18.4165 20.6332 18.9072L19.4834 20.1928L20.0591 19.55L19.4834 20.1928C18.1987 19.0468 14.3916 16.2327 12.2363 16.979C11.3877 17.2737 10.8245 18.1892 10.5563 19.7005C9.27785 26.9386 23.5571 33.3568 23.7014 33.4211L22.9971 34.9982Z" fill="#FFD13D"/>
<path d="M47.7172 11.8698H16.2677C15.7892 11.8698 15.3304 11.6798 14.9921 11.3417C14.6538 11.0036 14.4637 10.5451 14.4637 10.0669C14.4637 9.58875 14.6538 9.13019 14.9921 8.79208C15.3304 8.45398 15.7892 8.26404 16.2677 8.26404H47.7172C48.1956 8.26404 48.6545 8.45398 48.9928 8.79208C49.3311 9.13019 49.5211 9.58875 49.5211 10.0669C49.5211 10.5451 49.3311 11.0036 48.9928 11.3417C48.6545 11.6798 48.1956 11.8698 47.7172 11.8698Z" fill="#FFD527"/>
<path d="M33.9132 39.6873C33.9132 39.6873 34.8622 51.2883 40.6222 52H31.9948V39.7719L33.9132 39.6873Z" fill="#FCAF00"/>
<path d="M33.9132 39.6873C33.9132 39.6873 34.8622 51.2883 40.6222 52H31.9948V39.7719L33.9132 39.6873Z" fill="#FCAF00"/>
<path d="M30.0544 39.6873C30.0544 39.6873 29.1132 51.2883 23.3453 52H31.9728V39.7719L30.0544 39.6873Z" fill="#FCAF00"/>
<path d="M42.5783 51.9999H21.3688C21.3688 51.1891 21.6911 50.4116 22.2647 49.8383C22.8384 49.265 23.6164 48.9429 24.4277 48.9429H39.5258C40.337 48.9429 41.115 49.265 41.6887 49.8383C42.2623 50.4116 42.5846 51.1891 42.5846 51.9999H42.5783Z" fill="#FED03A"/>
<path d="M29.7563 49.8051C29.7563 50.1735 28.3916 50.4714 26.7085 50.4714C25.0253 50.4714 23.6591 50.1735 23.6591 49.8051C23.6591 49.4367 25.0253 49.1404 26.7085 49.1404C28.3916 49.1404 29.7563 49.4382 29.7563 49.8051Z" fill="#FEF68E"/>
<path d="M21.3688 22.6069C23.4073 22.6069 25.0598 20.5013 25.0598 17.9038C25.0598 15.3063 23.4073 13.2007 21.3688 13.2007C19.3304 13.2007 17.6779 15.3063 17.6779 17.9038C17.6779 20.5013 19.3304 22.6069 21.3688 22.6069Z" fill="#FEF68E"/>
<path d="M19.9633 10.3804C22.0044 10.3804 23.659 9.97679 23.659 9.47895C23.659 8.9811 22.0044 8.57751 19.9633 8.57751C17.9223 8.57751 16.2676 8.9811 16.2676 9.47895C16.2676 9.97679 17.9223 10.3804 19.9633 10.3804Z" fill="#FEF68E"/>
<path d="M26.5861 10.3804C27.6067 10.3804 28.434 9.97679 28.434 9.47895C28.434 8.9811 27.6067 8.57751 26.5861 8.57751C25.5656 8.57751 24.7383 8.9811 24.7383 9.47895C24.7383 9.97679 25.5656 10.3804 26.5861 10.3804Z" fill="#FEF68E"/>
<path d="M32.0277 16.0759L33.6826 19.4293L37.3861 19.967C37.3932 19.9681 37.3998 19.9712 37.4053 19.9758C37.4107 19.9805 37.4148 19.9865 37.417 19.9933C37.4193 20.0001 37.4197 20.0073 37.4181 20.0143C37.4165 20.0213 37.4131 20.0277 37.4081 20.0328L34.7352 22.6352L35.3626 26.3209C35.3637 26.328 35.3628 26.3353 35.36 26.3419C35.3572 26.3485 35.3526 26.3543 35.3468 26.3585C35.341 26.3627 35.3341 26.3652 35.3269 26.3658C35.3197 26.3663 35.3126 26.3649 35.3061 26.3617L31.9932 24.6215L28.6818 26.3617C28.6754 26.3649 28.6682 26.3663 28.661 26.3658C28.6539 26.3652 28.647 26.3627 28.6412 26.3585C28.6353 26.3543 28.6308 26.3485 28.628 26.3419C28.6252 26.3353 28.6243 26.328 28.6253 26.3209L29.2528 22.6352L26.5783 20.025C26.5733 20.0198 26.5699 20.0134 26.5683 20.0065C26.5667 19.9995 26.5671 19.9922 26.5693 19.9854C26.5716 19.9787 26.5757 19.9726 26.5811 19.968C26.5866 19.9634 26.5932 19.9603 26.6002 19.9592L30.3022 19.4214L31.9571 16.0759C31.9603 16.0693 31.9653 16.0637 31.9716 16.0598C31.9778 16.0559 31.985 16.0538 31.9924 16.0538C31.9998 16.0538 32.007 16.0559 32.0132 16.0598C32.0195 16.0637 32.0245 16.0693 32.0277 16.0759Z" fill="#E9A600"/>
</g>
<defs>
<clipPath id="clip0_138_507">
<rect width="65" height="48.8865" fill="white"/>
</clipPath>
<clipPath id="clip1_138_507">
<rect width="46.8315" height="43.7359" fill="white" transform="translate(8.74292 8.26404)"/>
</clipPath>
</defs>
</svg>
