<svg width="28" height="28" viewBox="0 0 28 28" fill="none" xmlns="http://www.w3.org/2000/svg">
<path fill-rule="evenodd" clip-rule="evenodd" d="M10.29 11.1417L6.12502 15.3067C4.78126 17.1624 4.98336 19.7191 6.60198 21.3406C8.2206 22.9622 10.7769 23.1688 12.635 21.8284L16.8 17.6634L10.29 11.1417ZM8.38837 18.0368L7.61837 18.7951C7.5182 18.9005 7.37879 18.9597 7.23337 18.9585C7.09142 18.9593 6.95577 18.8999 6.86004 18.7951L6.1017 18.0368C6.05 17.9881 6.0101 17.9282 5.98504 17.8618C5.96772 17.7968 5.96772 17.7284 5.98504 17.6635C5.96866 17.5944 5.96866 17.5225 5.98504 17.4535C6.01277 17.3884 6.05233 17.3291 6.1017 17.2785L6.86004 16.5201C6.90552 16.4648 6.96643 16.4241 7.03504 16.4035C7.10001 16.3861 7.16839 16.3861 7.23337 16.4035C7.3021 16.3846 7.37464 16.3846 7.44337 16.4035C7.51197 16.4241 7.57288 16.4648 7.61837 16.5201L8.38837 17.2785C8.48336 17.3845 8.53717 17.5211 8.54004 17.6635C8.53756 17.8024 8.4835 17.9355 8.38837 18.0368ZM10.6633 21.8518L11.4333 21.0818C11.5302 20.9769 11.5843 20.8396 11.585 20.6968C11.5848 20.5574 11.5305 20.4235 11.4333 20.3235L10.6633 19.5651C10.6146 19.5134 10.5548 19.4735 10.4883 19.4485C10.4228 19.4364 10.3555 19.4364 10.29 19.4485C10.2204 19.4375 10.1496 19.4375 10.08 19.4485C10.0135 19.4735 9.95368 19.5134 9.90499 19.5651L9.14665 20.3235C9.09857 20.3751 9.05917 20.4342 9.02999 20.4985C9.01793 20.564 9.01793 20.6312 9.02999 20.6968C9.01886 20.7663 9.01886 20.8372 9.02999 20.9068C9.05917 20.971 9.09857 21.0301 9.14665 21.0818L9.90499 21.8518C10.0099 21.9486 10.1472 22.0027 10.29 22.0035C10.4294 22.0033 10.5633 21.9489 10.6633 21.8518ZM11.4334 14.9918L10.6634 15.7501C10.6179 15.8055 10.557 15.8461 10.4884 15.8668C10.4234 15.8841 10.355 15.8841 10.29 15.8668C10.221 15.8832 10.1491 15.8832 10.08 15.8668C10.0114 15.8461 9.95053 15.8055 9.90504 15.7501L9.14671 14.9918C9.09501 14.9431 9.0551 14.8832 9.03004 14.8168C9.01117 14.7481 9.01117 14.6755 9.03004 14.6068C9.01272 14.5418 9.01272 14.4734 9.03004 14.4084C9.0551 14.342 9.09501 14.2821 9.14671 14.2334L9.90504 13.4751C9.95053 13.4197 10.0114 13.3791 10.08 13.3584C10.1491 13.3421 10.221 13.3421 10.29 13.3584C10.355 13.3411 10.4234 13.3411 10.4884 13.3584C10.557 13.3791 10.6179 13.4197 10.6634 13.4751L11.4334 14.2334C11.5285 14.3348 11.5826 14.4678 11.585 14.6068C11.5843 14.7496 11.5302 14.8869 11.4334 14.9918ZM13.3817 18.9579C13.5268 18.9579 13.6657 18.8991 13.7667 18.7951L14.525 18.0367C14.6244 17.9382 14.6792 17.8033 14.6767 17.6634C14.6797 17.52 14.625 17.3813 14.525 17.2784L13.7667 16.5201C13.7171 16.4695 13.6575 16.4298 13.5917 16.4034C13.4588 16.3404 13.3046 16.3404 13.1717 16.4034C13.1044 16.4268 13.0442 16.467 12.9967 16.5201L12.2384 17.2784C12.1352 17.3801 12.0765 17.5185 12.075 17.6634C12.077 17.8048 12.1359 17.9394 12.2384 18.0367L12.9967 18.7951C13.0978 18.8991 13.2366 18.9579 13.3817 18.9579Z" fill="#53B175"/>
<path d="M23.1234 9.49669C23.095 10.7106 22.5875 11.864 21.7117 12.705L17.57 16.8934L11.1067 10.43L15.2717 6.26503C16.5819 4.94511 18.5622 4.55274 20.2767 5.27336C21.9921 5.97619 23.1155 7.64288 23.1234 9.49669Z" fill="#53B175"/>
</svg>
