<svg width="78" height="63" viewBox="0 0 78 63" fill="none" xmlns="http://www.w3.org/2000/svg">
<path d="M5.00497 23.4036C4.1812 17.9857 7.49786 12.7897 12.8166 11.4673C16.7817 10.4815 21.3462 9.44832 25.0654 8.88445C28.7846 8.32058 33.4505 7.9543 37.5299 7.72051C43.0021 7.4069 47.7138 11.3857 48.5375 16.8036V16.8036C49.3613 22.2215 46.0447 27.4175 40.7259 28.7399C36.7608 29.7258 32.1963 30.7589 28.4771 31.3228C24.7579 31.8867 20.092 32.2529 16.0126 32.4867C10.5404 32.8003 5.82874 28.8215 5.00497 23.4036V23.4036Z" fill="#F1F1F1"/>
<path d="M4.03431 22.4241C3.2313 17.1468 6.46155 12.086 11.6425 10.7984C15.5048 9.8386 19.951 8.83275 23.5739 8.2839C27.1968 7.73506 31.7418 7.37877 35.7156 7.15147C41.0461 6.84658 45.6362 10.7227 46.4392 16V16C47.2422 21.2773 44.0119 26.3382 38.831 27.6257C34.9687 28.5855 30.5225 29.5914 26.8996 30.1402C23.2767 30.6891 18.7317 31.0454 14.7579 31.2726C9.42742 31.5775 4.83732 27.7015 4.03431 22.4241V22.4241Z" fill="white"/>
<ellipse rx="0.691711" ry="1.03653" transform="matrix(0.988772 -0.149923 0.150293 0.988567 22.5598 15.4228)" fill="#5E4040"/>
<ellipse rx="0.691711" ry="1.03653" transform="matrix(0.988772 -0.149923 0.150293 0.988567 26.6635 14.8005)" fill="#5E4040"/>
<path opacity="0.5" d="M25.4936 18.5041C25.315 18.7131 25.0101 18.7593 24.7775 18.6127L23.7587 17.9703C23.325 17.6969 23.4639 17.0321 23.9706 16.9552L25.7715 16.6822C26.2783 16.6053 26.6084 17.1991 26.2756 17.5887L25.4936 18.5041Z" fill="#5D4040"/>
<path d="M5.0177 36.1578C5.9895 27.4485 13.2639 20.794 22.0259 20.9508C28.5596 21.0678 36.0394 21.3596 42.0187 22.0268C47.998 22.6939 55.3582 24.058 61.7569 25.3841C70.338 27.1624 75.9668 35.2566 74.995 43.966V43.966C74.0232 52.6753 66.7487 59.3298 57.9867 59.1729C51.453 59.056 43.9733 58.7642 37.9939 58.097C32.0146 57.4298 24.6545 56.0658 18.2557 54.7397C9.67467 52.9614 4.0459 44.8671 5.0177 36.1578V36.1578Z" fill="#F4F4F4"/>
<path d="M7.17562 36.7949C8.12333 28.3115 15.2102 21.8288 23.7453 21.9805C30.1098 22.0936 37.3959 22.3769 43.2203 23.026C49.0447 23.6751 56.2141 25.0029 62.447 26.2938C70.8056 28.0249 76.2876 35.9084 75.3399 44.3918V44.3918C74.3922 52.8753 67.3053 59.3579 58.7702 59.2063C52.4057 59.0932 45.1197 58.8099 39.2953 58.1607C33.4708 57.5116 26.3015 56.1838 20.0685 54.893C11.7099 53.1618 6.2279 45.2784 7.17562 36.7949V36.7949Z" fill="white"/>
<ellipse rx="1.10623" ry="1.65744" transform="matrix(0.993849 0.110747 -0.11104 0.993816 38.6952 33.6375)" fill="#5E4040"/>
<ellipse rx="1.10623" ry="1.65744" transform="matrix(0.993849 0.110747 -0.11104 0.993816 45.2918 34.3726)" fill="#5E4040"/>
<path opacity="0.5" d="M41.9498 39.61C41.5875 39.859 41.0974 39.8044 40.799 39.4818L39.4915 38.0686C38.935 37.467 39.4249 36.4972 40.2396 36.588L43.1342 36.9105C43.9488 37.0013 44.2126 38.0551 43.537 38.5194L41.9498 39.61Z" fill="#5D4040"/>
</svg>
