<svg 
          width="7.572063446044922" 
          height="17.52117919921875" fill="none" 
          xmlns="http://www.w3.org/2000/svg">
          <path d="M 0.46258407831192017 17.5211124420166 C 0.354845754802227 17.518462294945493 0.2503648102283478 17.483634933829308 0.1625840663909912 17.421112060546875 C 0.06915060430765152 17.33970920741558 0.011646273778751493 17.22470084577799 0.002584068337455392 17.101112365722656 C -0.010368374874815345 16.982088394463062 0.02574152499437332 16.862925812602043 0.10258407145738602 16.7711124420166 L 6.562583923339844 8.90111255645752 C 6.593647921457887 8.860914006829262 6.61115491471719 8.811895571649075 6.612584114074707 8.761113166809082 C 6.612584114074707 8.707020614296198 6.595039457082748 8.654386635869741 6.562583923339844 8.611112594604492 L 0.10258407145738602 0.7511128187179565 C 0.06315328553318977 0.7036622390151024 0.032659378834068775 0.6494508869946003 0.012584068812429905 0.5911128520965576 C 0.0026992671191692352 0.5315199755132198 0.0026992671191692352 0.47070572152733803 0.012584068812429905 0.41111284494400024 C 0.023529675789177418 0.3484650030732155 0.043751850724220276 0.2877984754741192 0.07258407026529312 0.23111283779144287 C 0.09798877313733101 0.17938417196273804 0.13577381148934364 0.13472910597920418 0.18258406221866608 0.10111282765865326 C 0.23003464192152023 0.061682041734457016 0.2842460386455059 0.03118814155459404 0.3425840735435486 0.01111283153295517 C 0.40166929736733437 -0.003704276867210865 0.4634988568723202 -0.003704276867210865 0.522584080696106 0.01111283153295517 L 0.7025840878486633 0.01111283153295517 C 0.7559038735926151 0.04262537136673927 0.8032874800264835 0.08323989808559418 0.8425840735435486 0.13111282885074615 L 7.302584171295166 8.011113166809082 C 7.661889940500259 8.427670300006866 7.661889940500259 9.044555842876434 7.302584171295166 9.461112976074219 L 0.8225840926170349 17.351112365722656 C 0.7792956829071045 17.405522499233484 0.7247033789753914 17.449879793450236 0.6625840663909912 17.48111343383789 C 0.599552683532238 17.508620301261544 0.5313464552164078 17.522260558209382 0.46258407831192017 17.5211124420166 Z" fill="rgb(29.000000171363354,29.000000171363354,27.000000290572643)"/>
        </svg>