<svg width="35" height="35" viewBox="0 0 35 35" fill="none" xmlns="http://www.w3.org/2000/svg">
<path d="M14.3854 3.86529C15.9864 1.87833 19.0136 1.87833 20.6146 3.86529L23.5071 7.45481C23.9517 8.00664 24.535 8.43042 25.1973 8.6828L29.5049 10.3244C31.8894 11.2332 32.8248 14.1121 31.4299 16.2488L28.9098 20.1089C28.5224 20.7024 28.2996 21.3881 28.2642 22.0959L28.0341 26.7C27.9067 29.2486 25.4577 31.0278 22.9945 30.3615L18.5446 29.1576C17.8605 28.9725 17.1395 28.9725 16.4554 29.1576L12.0055 30.3615C9.5423 31.0278 7.09332 29.2486 6.96592 26.7L6.73576 22.0959C6.70038 21.3881 6.47758 20.7024 6.09017 20.1089L3.57014 16.2489C2.17519 14.1121 3.11062 11.2332 5.4951 10.3244L9.80274 8.6828C10.465 8.43042 11.0483 8.00664 11.4929 7.45481L14.3854 3.86529Z" fill="#71CB97"/>
<path d="M13.0367 17V12.3359H14.6695V11.3633H10.2281V12.3359H11.857V17H13.0367ZM17.1523 11.2656C15.4805 11.2656 14.4336 12.3867 14.4336 14.1836C14.4336 15.9766 15.4805 17.0938 17.1523 17.0938C18.8203 17.0938 19.8711 15.9766 19.8711 14.1836C19.8711 12.3867 18.8203 11.2656 17.1523 11.2656ZM17.1523 12.25C18.0742 12.25 18.6641 13 18.6641 14.1836C18.6641 15.3633 18.0742 16.1094 17.1523 16.1094C16.2266 16.1094 15.6367 15.3633 15.6367 14.1836C15.6367 13 16.2305 12.25 17.1523 12.25ZM20.2328 11.3633V17H21.4125V15.2227H22.4672C23.6547 15.2227 24.4789 14.4492 24.4789 13.293C24.4789 12.1328 23.682 11.3633 22.5258 11.3633H20.2328ZM21.4125 12.2969H22.2133C22.8891 12.2969 23.2797 12.6562 23.2797 13.2969C23.2797 13.9414 22.8852 14.3008 22.2094 14.3008H21.4125V12.2969ZM17.2617 25H18.4297V19.3633H17.2578L15.8008 20.375V21.4219L17.2383 20.4453H17.2617V25Z" fill="white"/>
</svg>
