<svg width="35" height="35" viewBox="0 0 35 35" fill="none" xmlns="http://www.w3.org/2000/svg">
<defs>
<linearGradient id="paint0_linear_225_482" x1="35" y1="14.8077" x2="-2.14402e-08" y2="14.8077" gradientUnits="userSpaceOnUse">
<stop stop-color="#74C295"/>
<stop offset="1" stop-color="#6FCF97"/>
</linearGradient>
</defs>
<path d="M14.1932 4.85854C15.7808 2.52603 19.2192 2.52603 20.8068 4.85854L21.1336 5.33876C21.939 6.52206 23.3152 7.18483 24.7425 7.07672L25.3218 7.03284C28.1352 6.81973 30.2791 9.50804 29.4452 12.2035L29.2736 12.7585C28.8506 14.1259 29.1905 15.6151 30.1649 16.6636L30.5603 17.0891C32.4811 19.1559 31.716 22.5082 29.0887 23.5368L28.5478 23.7486C27.2149 24.2705 26.2625 25.4648 26.0503 26.8803L25.9642 27.4548C25.5459 30.2451 22.448 31.737 20.0056 30.3243L19.5028 30.0335C18.2638 29.3168 16.7362 29.3168 15.4972 30.0335L14.9944 30.3243C12.552 31.737 9.45406 30.2451 9.03578 27.4548L8.94966 26.8803C8.73747 25.4648 7.78507 24.2705 6.45223 23.7486L5.91131 23.5368C3.28402 22.5082 2.51889 19.1559 4.43966 17.0891L4.83512 16.6636C5.80954 15.6151 6.14944 14.1259 5.72644 12.7585L5.55477 12.2035C4.72095 9.50804 6.86481 6.81973 9.67824 7.03284L10.2575 7.07672C11.6848 7.18483 13.061 6.52206 13.8664 5.33876L14.1932 4.85854Z" fill="url(#paint0_linear_225_482)"/>
<path d="M13.1617 17V12.3359H14.7945V11.3633H10.3531V12.3359H11.982V17H13.1617ZM17.2773 11.2656C15.6055 11.2656 14.5586 12.3867 14.5586 14.1836C14.5586 15.9766 15.6055 17.0938 17.2773 17.0938C18.9453 17.0938 19.9961 15.9766 19.9961 14.1836C19.9961 12.3867 18.9453 11.2656 17.2773 11.2656ZM17.2773 12.25C18.1992 12.25 18.7891 13 18.7891 14.1836C18.7891 15.3633 18.1992 16.1094 17.2773 16.1094C16.3516 16.1094 15.7617 15.3633 15.7617 14.1836C15.7617 13 16.3555 12.25 17.2773 12.25ZM20.3578 11.3633V17H21.5375V15.2227H22.5922C23.7797 15.2227 24.6039 14.4492 24.6039 13.293C24.6039 12.1328 23.807 11.3633 22.6508 11.3633H20.3578ZM21.5375 12.2969H22.3383C23.0141 12.2969 23.4047 12.6562 23.4047 13.2969C23.4047 13.9414 23.0102 14.3008 22.3344 14.3008H21.5375V12.2969ZM17.9961 25H19.1172V23.9648H19.8594V23.0234H19.1172V19.3633H17.4531C16.2969 21.0625 15.6836 22.0469 15.1914 22.9805V23.9648H17.9961V25ZM16.2188 23.0234C16.668 22.1836 17.1797 21.3828 17.9961 20.207H18.0195V23.0547H16.2188V23.0234Z" fill="white"/>
</svg>
